#!OML:ASF H:\Dans Jumps\Project 1\Capture day 1\Session 1\subject.ASF
:FULLY-SPECIFIED
:DEGREES
207
root 0.659044 17.5655 -14.6473 11.2162 -2.09308 -1.12026
lowerback 3.35182 -0.125979 0.118269
upperback 6.34252 -0.231725 1.66411
thorax 4.6781 -0.157186 1.65294
lowerneck -12.79 0.673854 -1.85335
upperneck 34.2646 1.13618 0.965346
head 13.7163 0.373089 0.882349
rclavicle -5.86415e-015 7.55382e-015
rhumerus -18.9026 -7.09057 -83.7136
rradius 29.1233
rwrist 27.5367
rhand -17.7976 -26.8851
rfingers 7.12502
rthumb 8.46568 -56.6954
lclavicle -5.86415e-015 7.55382e-015
lhumerus -16.8036 -11.141 90.5454
lradius 24.8968
lwrist 6.60242
lhand -24.8486 -2.62307
lfingers 7.12502
lthumb 1.65778 27.3502
rfemur -24.4457 -1.67767 19.424
rtibia 27.3748
rfoot -12.8166 -4.7229
rtoes 11.5389
lfemur -23.1001 6.11528 -19.7032
ltibia 24.6305
lfoot -10.1129 7.3545
ltoes 6.12237
208
root 0.658829 17.5669 -14.6479 11.2306 -2.08765 -1.11607
lowerback 3.34727 -0.12204 0.108625
upperback 6.34382 -0.226361 1.65877
thorax 4.6819 -0.154827 1.65286
lowerneck -12.7824 0.668199 -1.88776
upperneck 34.4436 1.115 1.03096
head 13.7937 0.366422 0.913414
rclavicle -1.2921e-015 9.14409e-015
rhumerus -18.9601 -7.16133 -83.7083
rradius 29.0347
rwrist 27.6229
rhand -17.8173 -26.8916
rfingers 7.12502
rthumb 8.44668 -56.7027
lclavicle -1.2921e-015 9.14409e-015
lhumerus -16.8868 -11.2194 90.5732
lradius 24.8941
lwrist 6.65257
lhand -24.7836 -2.62555
lfingers 7.12502
lthumb 1.72053 27.3473
rfemur -24.45 -1.67551 19.4199
rtibia 27.3478
rfoot -12.7954 -4.72637
rtoes 11.5577
lfemur -23.0975 6.10504 -19.7071
ltibia 24.5854
lfoot -10.0793 7.34624
ltoes 6.14026
209
root 0.65907 17.5687 -14.6486 11.2464 -2.07409 -1.10735
lowerback 3.34393 -0.117649 0.0981912
upperback 6.34173 -0.220339 1.65424
thorax 4.68142 -0.15216 1.65404
lowerneck -12.7583 0.664495 -1.90794
upperneck 34.6032 1.09737 1.08173
head 13.8594 0.36142 0.936341
rclavicle 8.94531e-016 1.59028e-015
rhumerus -19.0142 -7.23341 -83.696
rradius 28.946
rwrist 27.6918
rhand -17.8286 -26.877
rfingers 7.12502
rthumb 8.43576 -56.6886
lclavicle 8.94531e-016 1.59028e-015
lhumerus -16.9767 -11.326 90.6116
lradius 24.8996
lwrist 6.69743
lhand -24.8472 -2.75929
lfingers 7.12502
lthumb 1.65917 27.214
rfemur -24.4522 -1.68602 19.4111
rtibia 27.314
rfoot -12.7713 -4.72628
rtoes 11.5794
lfemur -23.09 6.07943 -19.7153
ltibia 24.5259
lfoot -10.0397 7.34102
ltoes 6.17291
210
root 0.659346 17.5708 -14.6495 11.2645 -2.05759 -1.09463
lowerback 3.34217 -0.114915 0.0842652
upperback 6.33609 -0.216431 1.64907
thorax 4.67639 -0.150656 1.6565
lowerneck -12.7461 0.644433 -1.96007
upperneck 34.7762 1.05676 1.1556
head 13.9341 0.345283 0.971082
rclavicle -7.95139e-016 -1.31198e-014
rhumerus -19.0665 -7.29809 -83.6861
rradius 28.8615
rwrist 27.7576
rhand -17.8354 -26.8771
rfingers 7.12502
rthumb 8.42919 -56.6889
lclavicle -7.95139e-016 -1.31198e-014
lhumerus -17.0678 -11.4321 90.6508
lradius 24.9069
lwrist 6.73482
lhand -25.0238 -3.04231
lfingers 7.12502
lthumb 1.48863 26.9322
rfemur -24.4538 -1.69902 19.3984
rtibia 27.2733
rfoot -12.7434 -4.72803
rtoes 11.6033
lfemur -23.0795 6.05165 -19.728
ltibia 24.4528
lfoot -9.99551 7.33263
ltoes 6.21038
211
root 0.659709 17.5732 -14.6506 11.287 -2.03859 -1.0774
lowerback 3.33995 -0.113383 0.0679221
upperback 6.32764 -0.214021 1.64217
thorax 4.66868 -0.149936 1.65849
lowerneck -12.7413 0.61915 -2.01775
upperneck 34.9539 1.0102 1.22903
head 14.0132 0.325748 1.006
rclavicle -3.8763e-015 -1.78906e-014
rhumerus -19.1179 -7.3552 -83.68
rradius 28.7869
rwrist 27.8206
rhand -17.8343 -26.8914
rfingers 7.12502
rthumb 8.4302 -56.7032
lclavicle -3.8763e-015 -1.78906e-014
lhumerus -17.1578 -11.5431 90.6898
lradius 24.9182
lwrist 6.76853
lhand -25.2899 -3.43738
lfingers 7.12502
lthumb 1.23155 26.5388
rfemur -24.4573 -1.71685 19.3813
rtibia 27.2254
rfoot -12.7101 -4.72966
rtoes 11.6254
lfemur -23.068 6.02398 -19.7467
ltibia 24.3662
lfoot -9.94671 7.31934
ltoes 6.25086
212
root 0.660105 17.5759 -14.6519 11.3136 -2.0174 -1.05937
lowerback 3.33649 -0.112773 0.0517464
upperback 6.31864 -0.212823 1.63478
thorax 4.66114 -0.149794 1.65987
lowerneck -12.7363 0.59594 -2.06808
upperneck 35.1229 0.968396 1.29129
head 14.0888 0.307817 1.03587
rclavicle -6.16232e-015 -6.36111e-015
rhumerus -19.1654 -7.4014 -83.6786
rradius 28.7253
rwrist 27.8782
rhand -17.823 -26.9173
rfingers 7.12502
rthumb 8.44116 -56.7286
lclavicle -6.16232e-015 -6.36111e-015
lhumerus -17.2395 -11.6522 90.728
lradius 24.9287
lwrist 6.7954
lhand -25.5962 -3.88051
lfingers 7.12502
lthumb 0.935793 26.0972
rfemur -24.4621 -1.73571 19.3638
rtibia 27.17
rfoot -12.6716 -4.73415
rtoes 11.6474
lfemur -23.0564 5.99866 -19.7672
ltibia 24.2676
lfoot -9.89363 7.30053
ltoes 6.29192
213
root 0.660578 17.5789 -14.6535 11.3447 -1.9967 -1.03889
lowerback 3.33104 -0.111826 0.0350019
upperback 6.30929 -0.211115 1.62521
thorax 4.65432 -0.149363 1.6593
lowerneck -12.7197 0.584899 -2.0932
upperneck 35.2708 0.944984 1.33095
head 14.1526 0.298315 1.05466
rclavicle -2.98177e-016 8.34896e-015
rhumerus -19.209 -7.43625 -83.6831
rradius 28.6767
rwrist 27.9244
rhand -17.7992 -26.9523
rfingers 7.12502
rthumb 8.4641 -56.7627
lclavicle -2.98177e-016 8.34896e-015
lhumerus -17.3114 -11.7671 90.7649
lradius 24.9364
lwrist 6.82333
lhand -25.8557 -4.2559
lfingers 7.12502
lthumb 0.68512 25.7227
rfemur -24.4688 -1.75406 19.3434
rtibia 27.1068
rfoot -12.6291 -4.74033
rtoes 11.6716
lfemur -23.0447 5.97657 -19.7919
ltibia 24.1577
lfoot -9.83667 7.27688
ltoes 6.3345
214
root 0.661125 17.5821 -14.6553 11.3805 -1.97404 -1.01974
lowerback 3.32264 -0.112045 0.019705
upperback 6.30108 -0.211035 1.61661
thorax 4.65042 -0.149717 1.65893
lowerneck -12.6891 0.591103 -2.08688
upperneck 35.3927 0.949252 1.33815
head 14.2013 0.300789 1.05856
rclavicle 3.08116e-015 1.59028e-014
rhumerus -19.2482 -7.45563 -83.692
rradius 28.6443
rwrist 27.9586
rhand -17.77 -26.9876
rfingers 7.12502
rthumb 8.49231 -56.7969
lclavicle 3.08116e-015 1.59028e-014
lhumerus -17.3737 -11.8803 90.8025
lradius 24.9427
lwrist 6.84737
lhand -26.0364 -4.52624
lfingers 7.12502
lthumb 0.510542 25.4529
rfemur -24.4772 -1.77214 19.3245
rtibia 27.0359
rfoot -12.5836 -4.74944
rtoes 11.6949
lfemur -23.0343 5.95707 -19.8162
ltibia 24.0381
lfoot -9.77497 7.2486
ltoes 6.37656
215
root 0.661722 17.5855 -14.6573 11.4201 -1.94963 -1.0023
lowerback 3.31213 -0.112585 0.0082024
upperback 6.29352 -0.211378 1.60738
thorax 4.64839 -0.150098 1.65577
lowerneck -12.6559 0.597863 -2.08084
upperneck 35.5034 0.954903 1.3439
head 14.2445 0.303745 1.06196
rclavicle -1.78906e-015 -2.24627e-014
rhumerus -19.2852 -7.45912 -83.7072
rradius 28.6273
rwrist 27.9735
rhand -17.7465 -27.0163
rfingers 7.12502
rthumb 8.51499 -56.8246
lclavicle -1.78906e-015 -2.24627e-014
lhumerus -17.4275 -11.9993 90.8399
lradius 24.9457
lwrist 6.87032
lhand -26.1304 -4.68499
lfingers 7.12502
lthumb 0.419813 25.2943
rfemur -24.4864 -1.79034 19.3075
rtibia 26.9582
rfoot -12.5364 -4.75948
rtoes 11.7247
lfemur -23.0241 5.93903 -19.8394
ltibia 23.9093
lfoot -9.70901 7.21612
ltoes 6.42131
216
root 0.662402 17.5891 -14.6596 11.4624 -1.92441 -0.98379
lowerback 3.29971 -0.113598 -0.00315365
upperback 6.28822 -0.212378 1.5976
thorax 4.64984 -0.150808 1.65197
lowerneck -12.63 0.604382 -2.07448
upperneck 35.6108 0.961746 1.34572
head 14.2879 0.306761 1.06392
rclavicle -9.74045e-015 6.55989e-015
rhumerus -19.3163 -7.44605 -83.7278
rradius 28.622
rwrist 27.9743
rhand -17.7427 -27.0281
rfingers 7.12502
rthumb 8.51864 -56.8362
lclavicle -9.74045e-015 6.55989e-015
lhumerus -17.4734 -12.1249 90.8782
lradius 24.9469
lwrist 6.89739
lhand -26.1282 -4.71254
lfingers 7.12502
lthumb 0.42194 25.2668
rfemur -24.4965 -1.80921 19.2891
rtibia 26.875
rfoot -12.4884 -4.76839
rtoes 11.7599
lfemur -23.0135 5.92135 -19.8644
ltibia 23.773
lfoot -9.64011 7.18063
ltoes 6.47439
217
root 0.663166 17.5929 -14.6622 11.508 -1.89364 -0.964385
lowerback 3.28687 -0.1164 -0.0125512
upperback 6.28399 -0.215744 1.58718
thorax 4.65271 -0.152595 1.64638
lowerneck -12.591 0.622311 -2.04391
upperneck 35.6927 0.986073 1.32579
head 14.3167 0.317863 1.05494
rclavicle 1.0635e-014 2.20651e-014
rhumerus -19.3423 -7.41837 -83.7539
rradius 28.6278
rwrist 27.9638
rhand -17.7498 -27.0252
rfingers 7.12502
rthumb 8.51183 -56.8336
lclavicle 1.0635e-014 2.20651e-014
lhumerus -17.5143 -12.2576 90.9162
lradius 24.9504
lwrist 6.92206
lhand -26.02 -4.58938
lfingers 7.12502
lthumb 0.526449 25.3897
rfemur -24.5088 -1.83222 19.27
rtibia 26.7883
rfoot -12.438 -4.77729
rtoes 11.7975
lfemur -23.0043 5.90057 -19.8902
ltibia 23.6292
lfoot -9.56761 7.14093
ltoes 6.53779
218
root 0.663997 17.5968 -14.6651 11.5541 -1.85831 -0.942651
lowerback 3.2753 -0.120708 -0.021378
upperback 6.2826 -0.221081 1.57534
thorax 4.6579 -0.155319 1.63901
lowerneck -12.5619 0.638431 -2.01513
upperneck 35.7699 1.00833 1.30651
head 14.3456 0.327977 1.04624
rclavicle -3.97569e-016 7.95139e-016
rhumerus -19.3616 -7.37594 -83.7865
rradius 28.6447
rwrist 27.9444
rhand -17.7626 -27.0158
rfingers 7.12502
rthumb 8.49949 -56.8247
lclavicle -3.97569e-016 7.95139e-016
lhumerus -17.5454 -12.3947 90.9518
lradius 24.9539
lwrist 6.94714
lhand -25.8396 -4.35858
lfingers 7.12502
lthumb 0.700646 25.62
rfemur -24.5208 -1.85597 19.2479
rtibia 26.6993
rfoot -12.3865 -4.78889
rtoes 11.8319
lfemur -22.9936 5.87632 -19.9181
ltibia 23.4789
lfoot -9.49377 7.09844
ltoes 6.6011
219
root 0.664913 17.6009 -14.6685 11.6013 -1.82012 -0.917716
lowerback 3.26589 -0.12609 -0.0314309
upperback 6.28295 -0.227809 1.56237
thorax 4.66374 -0.158771 1.63115
lowerneck -12.5455 0.650954 -1.9888
upperneck 35.8449 1.02604 1.28807
head 14.3766 0.335949 1.03769
rclavicle -2.38542e-015 -2.98177e-015
rhumerus -19.3751 -7.31909 -83.8241
rradius 28.6718
rwrist 27.9184
rhand -17.7732 -27.0104
rfingers 7.12502
rthumb 8.48919 -56.8197
lclavicle -2.38542e-015 -2.98177e-015
lhumerus -17.5661 -12.5373 90.985
lradius 24.957
lwrist 6.97648
lhand -25.5701 -3.9983
lfingers 7.12502
lthumb 0.961 25.9793
rfemur -24.5348 -1.8813 19.222
rtibia 26.6096
rfoot -12.3323 -4.8005
rtoes 11.8618
lfemur -22.9827 5.85185 -19.9499
ltibia 23.3221
lfoot -9.4173 7.05101
ltoes 6.67007
